HIERARCHY
ROOT pelvis
{
  OFFSET 0 100 0
  CHANNELS 6 Xposition Yposition Zposition Zrotation Xrotation Yrotation
  JOINT pelvis_right_femur
  {
    OFFSET -10.78128 -3.44521 -0.5502486
    CHANNELS 3 Zrotation Xrotation Yrotation
    JOINT right_femur_tibia
    {
      OFFSET -0.8047443 -44.0398 -0.1307829
      CHANNELS 3 Zrotation Xrotation Yrotation
      JOINT right_tibia_foot
      {
        OFFSET 3.006224 -47.83518 -5
        CHANNELS 3 Zrotation Xrotation Yrotation
        End Site
        {
          OFFSET 0 -5 15
        }
      }
    }
  }
  JOINT pelvis_left_femur
  {
    OFFSET 10.78128 -3.44521 -0.5502486
    CHANNELS 3 Zrotation Xrotation Yrotation
    JOINT left_femur_tibia
    {
      OFFSET 0.8047443 -44.0398 -0.1307829
      CHANNELS 3 Zrotation Xrotation Yrotation
      JOINT left_tibia_foot
      {
        OFFSET -4.370144 -48.10324 -4.275266
        CHANNELS 3 Zrotation Xrotation Yrotation
        End Site
        {
          OFFSET 0 -5 15
        }
      }
    }
  }
  JOINT pelvis_spine1
  {
    OFFSET 0 6.468898 -3.129235
    CHANNELS 3 Zrotation Xrotation Yrotation
    JOINT spine1
    {
      OFFSET 0 23.15396 4.99043
      CHANNELS 3 Zrotation Xrotation Yrotation
      JOINT spine2
      {
        OFFSET 0 20.79997 -5.064912
        CHANNELS 3 Zrotation Xrotation Yrotation
        JOINT neck
        {
          OFFSET 0 14.38658 9.616178
          CHANNELS 3 Zrotation Xrotation Yrotation
          End Site
          {
            OFFSET 0 20 0
          }
        }
      }
      JOINT right_manubrium
      {
        OFFSET -5.722621 16.35077 3.967754
        CHANNELS 3 Zrotation Xrotation Yrotation
        JOINT right_clavicle
        {
          OFFSET -13.16364 1.694482 -4.693211
          CHANNELS 3 Zrotation Xrotation Yrotation
          JOINT right_humerus
          {
            OFFSET -28.5034 -0.3100689 -2.792744
            CHANNELS 3 Zrotation Xrotation Yrotation
            JOINT right_radius
            {
              OFFSET -25.15693 0.02248979 -1.271978
              CHANNELS 3 Zrotation Xrotation Yrotation
              End Site
              {
                OFFSET -15 0 0
              }
            }
          }
        }
      }
      JOINT left_manubrium
      {
        OFFSET 5.722621 16.35077 3.967754
        CHANNELS 3 Zrotation Xrotation Yrotation
        JOINT left_clavicle
        {
          OFFSET 13.16364 1.694482 -4.693211
          CHANNELS 3 Zrotation Xrotation Yrotation
          JOINT left_humerus
          {
            OFFSET 29.39168 -1.063119 -2.237045
            CHANNELS 3 Zrotation Xrotation Yrotation
            JOINT left_radius
            {
              OFFSET 24.59957 -0.9528479 0.9047498
              CHANNELS 3 Zrotation Xrotation Yrotation
              End Site
              {
                OFFSET 15 -0 -0
              }
            }
          }
        }
      }
    }
  }
}
MOTION
Frames: 15
Frame Time: 0.0416666666667
622.8842 100.2693 3054.36 3.461424 -4.365662 19.13322 -0.3995294 18.45382 5.208434 -0 30.17533 -0 2.915473 -7.063638 -0.8706202 -2.092889 -23.86138 -6.246591 -0 19.77882 -0 -4.583898 -8.051549 19.73396 -0.4026156 -1.099654 7.09991 -1.597482 10.65877 -1.684373 1.260714 21.39013 3.933914 1.179283 -16.62298 5.816898 0.09858899 -26.75327 11.33623 81.15297 26.12323 1.871704 -0 0 29.34521 -22.65667 11.33582 18.41545 2.508812 -16.30345 -3.943566 -93.95444 12.40446 34.43505 0 0 -3.485484 5.567423 13.9877 7.312837
626.5467 100.6535 3060.687 4.348552 -5.090316 19.61925 -1.024918 16.30118 5.211151 -0 39.84649 -0 3.702396 -2.549063 -2.138377 -3.632713 -19.7816 -6.91312 -0 21.59225 -0 -3.751802 -8.628312 18.81919 -0.7330845 -0.567057 6.924332 -1.880783 10.04594 -1.110296 1.243396 22.19555 4.519446 1.943278 -16.07641 5.954455 0.7161547 -25.48007 11.27331 80.172 27.71435 2.774657 -0 0 28.18202 -22.72174 10.12345 17.88649 2.787734 -15.86846 -3.8173 -94.36968 12.59332 33.43759 0 0 -1.011173 6.176664 14.25579 6.065555
630.0944 101.6416 3066.766 4.983186 -5.891057 20.54787 -1.069616 12.18743 4.663391 -0 48.80252 -0 3.962376 0.5324921 -3.66077 -4.813134 -14.56216 -7.432965 -0 22.5561 -0 -3.31462 -9.633939 17.85458 -0.9837365 -0.1658132 6.771079 -2.09681 9.696671 -0.7333727 1.207576 22.85803 5.06282 2.71536 -15.60094 6.022546 1.299012 -24.3704 11.23365 79.54427 29.03519 3.066764 -0 0 27.01299 -22.76273 9.24974 17.10936 3.136946 -15.78371 -3.853795 -94.80614 12.58287 32.55597 -0 0 1.197222 6.991599 14.57643 4.621828
633.3915 102.9603 3072.411 5.182918 -6.458403 21.74707 -0.7527961 6.310123 3.86583 -0 54.70331 -0 3.584734 1.800369 -5.050856 -5.519674 -8.941572 -7.888124 -0 21.98007 -0 -3.099738 -10.97684 17.13693 -1.189237 0.1124129 6.601214 -2.266748 9.553889 -0.5199266 1.194128 23.4033 5.554946 3.493373 -15.18706 6.044919 1.857817 -23.35545 11.2039 79.20493 30.07263 2.844299 -0 0 25.79877 -22.87397 8.686812 16.16769 3.593593 -15.96425 -4.008835 -95.21416 12.47265 31.59006 -0 0 3.103242 7.984247 14.99874 2.980324
636.4102 104.2212 3077.582 4.97534 -6.687885 23.0113 -0.3186174 -0.6561248 3.205468 -0 56.09945 -0 2.806461 1.609505 -6.14226 -5.739805 -3.600077 -8.225277 -0 20.03787 -0 -2.870521 -12.48767 16.65181 -1.38094 0.2672266 6.359468 -2.388913 9.57531 -0.4679829 1.236554 23.86208 5.986789 4.264514 -14.84672 6.047311 2.397539 -22.34717 11.17374 79.14005 30.77543 2.101686 -0 0 24.41076 -23.12453 8.427755 15.13011 4.197611 -16.36902 -4.250421 -95.51282 12.38718 30.28145 -0 0 4.564486 9.170397 15.57845 1.104329
639.2084 105.065 3082.391 4.582119 -6.658599 24.18685 0.05703145 -7.723127 2.742502 -0 52.72691 -0 1.891182 0.4637232 -6.922669 -5.620965 1.151749 -8.389393 -0 17.42934 -0 -2.563379 -14.07063 16.20765 -1.567468 0.2940225 6.013879 -2.441287 9.719739 -0.6096894 1.329027 24.22294 6.35007 4.984215 -14.64449 6.046972 2.86763 -21.33135 11.12714 79.41311 31.12383 0.7680778 -0 0 22.76742 -23.47612 8.441746 14.04468 4.951502 -17.00914 -4.556627 -95.55568 12.39385 28.4701 -0 0 5.216836 10.58122 16.26741 -1.011413
641.8778 105.2778 3087.045 4.26138 -6.435262 25.20036 0.215622 -13.97234 2.214915 -0 45.45618 -0 0.9753293 -1.075225 -7.404175 -5.418526 5.317062 -8.389888 -0 14.94728 -0 -2.277338 -15.69423 15.61266 -1.739031 0.2010459 5.578286 -2.402508 9.942438 -0.973058 1.42778 24.4419 6.641803 5.595223 -14.65116 6.041665 3.193057 -20.37005 11.05724 80.08342 31.16203 -1.17166 -0 0 20.91117 -23.80885 8.63317 12.95635 5.806715 -17.90093 -4.910729 -95.1881 12.47181 26.16321 -0 0 4.637446 12.18397 16.89597 -3.275508
644.5103 104.8396 3091.775 4.12908 -6.019878 26.05019 0.09213953 -18.88504 1.425982 -0 36.06342 -0 0.1903731 -2.422346 -7.649081 -5.323725 8.993453 -8.259521 -0 13.25826 -0 -2.208545 -17.2819 14.78601 -1.882925 0.01907222 5.097965 -2.270179 10.20111 -1.542075 1.483343 24.48942 6.866214 6.059026 -14.87921 6.015157 3.338955 -19.53356 10.97734 81.11783 30.97497 -3.594714 -0 0 18.97341 -24.01297 8.86775 11.92223 6.685603 -19.01125 -5.293024 -94.34907 12.54581 23.50084 -0 0 2.645448 13.84551 17.27892 -5.503642
647.182 103.8909 3096.779 4.142378 -5.451601 26.77527 -0.1848844 -22.3373 0.5001951 -0 26.57539 -0 -0.3419105 -3.18255 -7.787676 -5.362551 12.24803 -8.030885 -0 12.82969 -0 -2.534678 -18.6446 13.79629 -1.99009 -0.2054367 4.623126 -2.063471 10.46092 -2.246637 1.471216 24.38279 7.030127 6.365084 -15.27021 5.955878 3.328319 -18.85512 10.91109 82.38329 30.63976 -6.250887 -0 0 17.10336 -24.05198 9.041574 11.01239 7.505697 -20.23832 -5.676058 -93.13096 12.54957 20.71339 0 0 -0.5223597 15.37433 17.33658 -7.476949
649.9409 102.6642 3102.192 4.196478 -4.855091 27.42004 -0.3461101 -24.38265 -0.2212141 -0 18.6509 -0 -0.6157231 -3.270615 -7.954641 -5.435204 15.08853 -7.752685 -0 13.94772 -0 -3.319886 -19.50789 12.81553 -2.053624 -0.4260727 4.192725 -1.817548 10.69573 -2.978169 1.401681 24.18724 7.139373 6.52562 -15.72526 5.870805 3.216972 -18.33013 10.87721 83.69133 30.19711 -8.825801 -0 0 15.42196 -23.97209 9.12682 10.29915 8.193884 -21.43245 -6.028699 -91.75896 12.47725 18.08606 0 0 -4.251976 16.60502 17.14059 -9.019905
652.797 101.4294 3108.077 4.192124 -4.413942 28.00361 -0.1020099 -25.08729 -0.3879869 -0 13.42485 -0 -0.7549248 -2.880669 -8.229088 -5.390403 17.43138 -7.502336 -0 16.78914 -0 -4.496144 -19.56932 12.0641 -2.066759 -0.6124966 3.830339 -1.572724 10.89449 -3.62584 1.307909 23.98836 7.198087 6.568346 -16.14544 5.77992 3.06204 -17.9354 10.88462 84.86135 29.64788 -11.03759 -0 0 14.0029 -23.87148 9.166517 9.836715 8.69791 -22.45068 -6.330002 -90.49791 12.38782 15.89041 0 0 -7.792015 17.45989 16.86334 -10.0546
655.718 100.4541 3114.411 4.064477 -4.330966 28.49195 0.7406533 -24.49171 0.1953285 -0 11.49935 -0 -0.9629731 -2.417523 -8.598122 -5.08611 19.05178 -7.370003 -0 21.45178 -0 -5.853876 -18.56865 11.77742 -2.022639 -0.7587541 3.548134 -1.35962 11.07072 -4.11862 1.222787 23.85196 7.207055 6.527127 -16.46215 5.695174 2.900787 -17.65196 10.93756 85.78129 28.96057 -12.73138 -0 0 12.87522 -23.85087 9.232673 9.641723 8.993021 -23.21627 -6.58425 -89.54581 12.35535 14.30826 0 0 -10.55992 17.94748 16.67348 -10.59799
658.6394 99.95916 3121.065 3.819265 -4.767445 28.7842 2.152124 -22.65676 1.426737 -0 12.71533 -0 -1.447522 -2.362467 -8.935882 -4.47222 19.57159 -7.401326 -0 27.89981 -0 -7.047167 -16.42655 12.13358 -1.913853 -0.8817061 3.358981 -1.190528 11.26887 -4.444353 1.16103 23.79678 7.159945 6.433875 -16.64444 5.600513 2.74495 -17.48831 11.04359 86.42863 28.08205 -13.90333 -0 0 12.05727 -23.97872 9.38724 9.689993 9.074307 -23.74161 -6.827721 -88.99535 12.40452 13.42756 0 0 -12.29125 18.11594 16.65601 -10.71522
661.4946 100.0678 3127.823 3.566784 -5.732582 28.74729 3.7984 -19.71882 2.876456 -0 15.88714 -0 -2.27694 -3.013644 -9.03623 -3.684089 18.54201 -7.531985 -0 35.81093 -0 -7.735196 -13.44625 13.11043 -1.725377 -1.017772 3.296991 -1.062189 11.57488 -4.635404 1.115771 23.7918 7.03581 6.314299 -16.68163 5.441415 2.587852 -17.50851 11.22407 86.83757 26.92948 -14.63867 -0 0 11.62262 -24.29503 9.684395 9.93783 8.928353 -24.1058 -7.130996 -88.89071 12.47937 13.34974 0 0 -12.92948 17.99797 16.80447 -10.45678
664.2523 100.7667 3134.436 3.491071 -6.984124 28.31797 5.139648 -15.86394 4.026999 -0 19.0862 -0 -3.206164 -4.268039 -8.726406 -3.017635 15.62759 -7.606201 -0 44.33873 -0 -7.875608 -10.39296 14.40396 -1.417583 -1.228861 3.439967 -0.9575076 12.14027 -4.746127 1.06558 23.76243 6.7852 6.174571 -16.56552 5.12712 2.412493 -17.87086 11.52996 87.05582 25.34119 -15.03366 -0 0 11.77058 -24.82993 10.22213 10.36289 8.489049 -24.4166 -7.601397 -89.32419 12.45632 14.35576 0 0 -12.41027 17.5582 17.06122 -9.778247
